# xmcd
#
# Track frame offsets:
#	150
#	20677
#	45210
#	65030
#	82177
#	100065
#	117912
#	132567
#	149045
#	168225
#
# Disc length: 2448 seconds
#
# Revision: 1
# Processed by: cddbd v1.5.1PL0 Copyright (c) Steve Scherf et al.
# Submitted via: CDex 1.50Beta5
#
DISCID=8f098e0a
DTITLE=ハイ・ファイ・セット - ファショナブル・ラバー
DYEAR=1987
DGENRE=Pop
TTITLE0=星のストレンジャー
TTITLE1=朝陽の中で微笑んで
TTITLE2=ジュ・マンニュイ
TTITLE3=フェアウェル・パーティ
TTITLE4=冷たい雨
TTITLE5=ファッショナブル・ラバー
TTITLE6=荒涼
TTITLE7=真夜中の面影
TTITLE8=月にてらされて
TTITLE9=グランド・キャニオン
EXTD=
EXTT0=
EXTT1=
EXTT2=
EXTT3=
EXTT4=
EXTT5=
EXTT6=
EXTT7=
EXTT8=
EXTT9=
PLAYORDER=
